# xmcd CD database file
#
# Track frame offsets:
#	150
#	8167
#	39154
#	64059
#	89072
#	107372
#	132805
#	157821
#	191196
#	217146
#	228321
#	240846
#	251421
#	258996
#	291396
#	322671
#
# Disc length: 4640 seconds
#
# Revision: 0
# Processed by: cddbd v1.5.2PL0 Copyright (c) Steve Scherf et al.
# Submitted via: CDex 1.51
#
DISCID=d0121e10
DTITLE=Steve Halpern - Tonal Alchemy
DYEAR=1900
DGENRE=New Age
TTITLE0=Pyramid Power
TTITLE1=OM Suite OM I
TTITLE2=Shakuhachi Alchemy
TTITLE3=18th Century Tibetan Bowl
TTITLE4=Tonal Alchemy I
TTITLE5=Vowel Power
TTITLE6=Tonal Alchemy II
TTITLE7=OM Suite OM II
TTITLE8=Heavy Metal
TTITLE9=Tonal Alchemy III
TTITLE10=Tonal Alchemy IV
TTITLE11=Tibetan Gold
TTITLE12=Shambhalla
TTITLE13=OM Suite OM III
TTITLE14=Kyoto Temple Bowl
TTITLE15=OM Suite OM IV
EXTD=
EXTT0=
EXTT1=
EXTT2=
EXTT3=
EXTT4=
EXTT5=
EXTT6=
EXTT7=
EXTT8=
EXTT9=
EXTT10=
EXTT11=
EXTT12=
EXTT13=
EXTT14=
EXTT15=
PLAYORDER=
